<svg width="12" height="13" viewBox="0 0 12 13" fill="none" xmlns="http://www.w3.org/2000/svg">
<path d="M11.0168 7.72525C10.9556 7.78808 10.7245 8.05675 10.5092 8.27775C9.247 9.66767 5.95425 11.9427 4.23084 12.6371C3.96911 12.7487 3.3074 12.9848 2.95385 13C2.61508 13 2.29213 12.922 1.98397 12.7638C1.59981 12.5428 1.29165 12.1951 1.12279 11.7845C1.01409 11.4996 0.845227 10.647 0.845227 10.6318C0.676368 9.69908 0.583496 8.1835 0.583496 6.50867C0.583496 4.91292 0.676368 3.45908 0.814621 2.51225C0.830451 2.49708 0.99931 1.43758 1.184 1.07467C1.52277 0.411666 2.18449 -5.46819e-07 2.89264 -5.77773e-07L2.95385 -5.80449e-07C3.41504 0.0162494 4.38492 0.427916 4.38492 0.443083C6.01547 1.13858 9.23222 3.302 10.525 4.73958C10.525 4.73958 10.8891 5.109 11.0475 5.33975C11.2944 5.67125 11.4168 6.08183 11.4168 6.49242C11.4168 6.95067 11.2786 7.3775 11.0168 7.72525Z" fill="white"/>
</svg>
