<svg width="20" height="20" viewBox="0 0 20 20" fill="none" xmlns="http://www.w3.org/2000/svg">
<path d="M19.5608 17.4395C20.1464 18.0251 20.1464 18.9753 19.5608 19.5608C18.9753 20.1464 18.0251 20.1464 17.4395 19.5608L10 12.1213L2.56049 19.5608C1.97493 20.1464 1.02474 20.1464 0.439173 19.5608C-0.146391 18.9753 -0.146391 18.0251 0.439173 17.4395L7.87868 10L0.439173 2.56049C-0.146391 1.97493 -0.146391 1.02474 0.439173 0.439173C1.02474 -0.146391 1.97493 -0.146391 2.56049 0.439173L10 7.87869L17.4395 0.439173C18.0251 -0.146391 18.9753 -0.146391 19.5608 0.439173C20.1464 1.02474 20.1464 1.97493 19.5608 2.56049L12.1213 10L19.5608 17.4395Z" fill="white"/>
</svg>
