<svg width="60" height="60" viewBox="0 0 60 60" fill="none" xmlns="http://www.w3.org/2000/svg">
<path d="M1.53846 12.3076C1.13044 12.3076 0.739123 12.4697 0.450605 12.7582C0.162088 13.0467 0 13.4381 0 13.8461C0 14.2541 0.162088 14.6454 0.450605 14.9339C0.739123 15.2225 1.13044 15.3845 1.53846 15.3845C1.94649 15.3845 2.3378 15.2225 2.62632 14.9339C2.91484 14.6454 3.07692 14.2541 3.07692 13.8461C3.07692 13.4381 2.91484 13.0467 2.62632 12.7582C2.3378 12.4697 1.94649 12.3076 1.53846 12.3076Z" fill="#EE3E54"/>
<path d="M50.7692 0.769531C50.5652 0.769531 50.3696 0.850575 50.2253 0.994834C50.081 1.13909 50 1.33475 50 1.53876C50 1.74277 50.081 1.93843 50.2253 2.08269C50.3696 2.22695 50.5652 2.30799 50.7692 2.30799C50.9732 2.30799 51.1689 2.22695 51.3132 2.08269C51.4574 1.93843 51.5385 1.74277 51.5385 1.53876C51.5385 1.33475 51.4574 1.13909 51.3132 0.994834C51.1689 0.850575 50.9732 0.769531 50.7692 0.769531Z" fill="#F1BC19"/>
<path d="M30.0001 1.53857C22.4516 1.53857 15.2123 4.53719 9.87477 9.87477C4.53719 15.2123 1.53857 22.4516 1.53857 30.0001C1.53857 37.5486 4.53719 44.7879 9.87477 50.1255C15.2123 55.463 22.4516 58.4617 30.0001 58.4617C37.5486 58.4617 44.7879 55.463 50.1255 50.1255C55.463 44.7879 58.4617 37.5486 58.4617 30.0001C58.4617 22.4516 55.463 15.2123 50.1255 9.87477C44.7879 4.53719 37.5486 1.53857 30.0001 1.53857Z" fill="#F3DEA3"/>
<path d="M55.3845 0C54.5685 0 53.7859 0.324175 53.2088 0.90121C52.6318 1.47824 52.3076 2.26087 52.3076 3.07692C52.3076 3.89297 52.6318 4.6756 53.2088 5.25264C53.7859 5.82967 54.5685 6.15385 55.3845 6.15385C56.2006 6.15385 56.9832 5.82967 57.5603 5.25264C58.1373 4.6756 58.4615 3.89297 58.4615 3.07692C58.4615 2.26087 58.1373 1.47824 57.5603 0.90121C56.9832 0.324175 56.2006 0 55.3845 0Z" fill="#F1BC19"/>
<path d="M58.4618 8.46143C58.0538 8.46143 57.6625 8.62351 57.3739 8.91203C57.0854 9.20055 56.9233 9.59186 56.9233 9.99989C56.9233 10.4079 57.0854 10.7992 57.3739 11.0877C57.6625 11.3763 58.0538 11.5383 58.4618 11.5383C58.8698 11.5383 59.2611 11.3763 59.5497 11.0877C59.8382 10.7992 60.0003 10.4079 60.0003 9.99989C60.0003 9.59186 59.8382 9.20055 59.5497 8.91203C59.2611 8.62351 58.8698 8.46143 58.4618 8.46143Z" fill="#EE3E54"/>
<path d="M53.8462 48.4613C53.4381 48.4613 53.0468 48.6234 52.7583 48.9119C52.4698 49.2004 52.3077 49.5917 52.3077 49.9998C52.3077 50.4078 52.4698 50.7991 52.7583 51.0876C53.0468 51.3761 53.4381 51.5382 53.8462 51.5382C54.2542 51.5382 54.6455 51.3761 54.934 51.0876C55.2225 50.7991 55.3846 50.4078 55.3846 49.9998C55.3846 49.5917 55.2225 49.2004 54.934 48.9119C54.6455 48.6234 54.2542 48.4613 53.8462 48.4613ZM3.07692 36.9229C2.26087 36.9229 1.47824 37.247 0.90121 37.8241C0.324175 38.4011 0 39.1837 0 39.9998C0 40.8158 0.324175 41.5985 0.90121 42.1755C1.47824 42.7525 2.26087 43.0767 3.07692 43.0767C3.89297 43.0767 4.6756 42.7525 5.25264 42.1755C5.82967 41.5985 6.15385 40.8158 6.15385 39.9998C6.15385 39.1837 5.82967 38.4011 5.25264 37.8241C4.6756 37.247 3.89297 36.9229 3.07692 36.9229Z" fill="#FBCD59"/>
<path d="M10.7694 56.9229C10.3614 56.9229 9.97008 57.0849 9.68156 57.3735C9.39304 57.662 9.23096 58.0533 9.23096 58.4613C9.23096 58.8693 9.39304 59.2607 9.68156 59.5492C9.97008 59.8377 10.3614 59.9998 10.7694 59.9998C11.1774 59.9998 11.5688 59.8377 11.8573 59.5492C12.1458 59.2607 12.3079 58.8693 12.3079 58.4613C12.3079 58.0533 12.1458 57.662 11.8573 57.3735C11.5688 57.0849 11.1774 56.9229 10.7694 56.9229Z" fill="#EE3E54"/>
<path d="M5.76927 30.7695C5.25924 30.7695 4.77009 30.9721 4.40945 31.3328C4.0488 31.6934 3.84619 32.1826 3.84619 32.6926C3.84619 33.2026 4.0488 33.6918 4.40945 34.0524C4.77009 34.4131 5.25924 34.6157 5.76927 34.6157C6.2793 34.6157 6.76844 34.4131 7.12909 34.0524C7.48974 33.6918 7.69235 33.2026 7.69235 32.6926C7.69235 32.1826 7.48974 31.6934 7.12909 31.3328C6.76844 30.9721 6.2793 30.7695 5.76927 30.7695Z" fill="white"/>
<path d="M7.69208 42.3076C7.48807 42.3076 7.29241 42.3887 7.14815 42.5329C7.00389 42.6772 6.92285 42.8728 6.92285 43.0768C6.92285 43.2809 7.00389 43.4765 7.14815 43.6208C7.29241 43.765 7.48807 43.8461 7.69208 43.8461C7.8961 43.8461 8.09175 43.765 8.23601 43.6208C8.38027 43.4765 8.46131 43.2809 8.46131 43.0768C8.46131 42.8728 8.38027 42.6772 8.23601 42.5329C8.09175 42.3887 7.8961 42.3076 7.69208 42.3076Z" fill="#F1BC19"/>
<path d="M53.0768 16.9233C52.8728 16.9233 52.6772 17.0044 52.5329 17.1486C52.3887 17.2929 52.3076 17.4886 52.3076 17.6926C52.3076 17.8966 52.3887 18.0922 52.5329 18.2365C52.6772 18.3808 52.8728 18.4618 53.0768 18.4618C53.2809 18.4618 53.4765 18.3808 53.6208 18.2365C53.765 18.0922 53.8461 17.8966 53.8461 17.6926C53.8461 17.4886 53.765 17.2929 53.6208 17.1486C53.4765 17.0044 53.2809 16.9233 53.0768 16.9233Z" fill="white"/>
<path d="M30 11.25C27.5504 11.25 25.1247 11.7325 22.8615 12.6699C20.5983 13.6074 18.5419 14.9814 16.8098 16.7136C15.0776 18.4458 13.7036 20.5021 12.7661 22.7653C11.8287 25.0285 11.3462 27.4542 11.3462 29.9038C11.3462 32.3535 11.8287 34.7792 12.7661 37.0424C13.7036 39.3056 15.0776 41.3619 16.8098 43.0941C18.5419 44.8263 20.5983 46.2003 22.8615 47.1377C25.1247 48.0752 27.5504 48.5577 30 48.5577C32.4497 48.5577 34.8754 48.0752 37.1386 47.1377C39.4017 46.2003 41.4581 44.8263 43.1903 43.0941C44.9225 41.3619 46.2965 39.3056 47.2339 37.0424C48.1714 34.7792 48.6539 32.3535 48.6539 29.9038C48.6539 27.4542 48.1714 25.0285 47.2339 22.7653C46.2965 20.5021 44.9225 18.4458 43.1903 16.7136C41.4581 14.9814 39.4017 13.6074 37.1386 12.6699C34.8754 11.7325 32.4497 11.25 30 11.25Z" fill="#78A2D2"/>
<path d="M43.9723 37.2654C43.9161 37.2654 43.8584 37.2524 43.8038 37.2262C43.613 37.1331 43.5338 36.9031 43.6269 36.7124C43.7284 36.5039 43.8238 36.2947 43.9154 36.0831C44.2692 35.2616 44.5507 34.4016 44.7515 33.5308C44.7992 33.3231 45.0077 33.1947 45.213 33.2424C45.42 33.2908 45.5492 33.497 45.5015 33.7039C45.29 34.6201 44.9938 35.5239 44.6215 36.3885C44.5254 36.6108 44.4246 36.8308 44.3177 37.0493C44.2515 37.1862 44.1146 37.2654 43.9723 37.2654Z" fill="#472B29"/>
<path d="M45.5878 31.7974C45.5762 31.7974 45.5647 31.7966 45.5532 31.7958C45.3416 31.7774 45.1855 31.5897 45.2047 31.3781C45.2347 31.0481 45.2532 30.7189 45.2616 30.3889C45.3132 28.3381 44.9616 26.3327 44.217 24.4258C44.1393 24.2281 44.2378 24.005 44.4355 23.9281C44.6347 23.8481 44.8563 23.9474 44.9339 24.1466C45.7163 26.1481 46.0855 28.255 46.0309 30.4081C46.0224 30.755 46.0024 31.1012 45.9709 31.4481C45.9524 31.6474 45.7847 31.7974 45.5878 31.7974Z" fill="#472B29"/>
<path d="M18.5439 19.6394C18.4493 19.6394 18.3555 19.6048 18.2816 19.5355C18.1262 19.3909 18.1185 19.1471 18.2632 18.9925C20.8778 16.1909 24.4162 14.4232 28.2247 14.0117C28.4378 13.994 28.6255 14.1425 28.6485 14.3525C28.6716 14.5632 28.5185 14.7532 28.3078 14.7763C24.6824 15.1678 21.3147 16.8509 18.8255 19.5163C18.7501 19.5986 18.647 19.6394 18.5439 19.6394Z" fill="#472B29"/>
<path d="M19.337 41.7567C19.2424 41.7567 19.1486 41.7221 19.0747 41.6528C13.6101 36.5513 12.3663 28.4698 16.0486 22.0005C16.154 21.8144 16.3886 21.7505 16.5732 21.8559C16.7578 21.9613 16.8224 22.1959 16.717 22.3805C13.2117 28.539 14.397 36.2328 19.6001 41.0905C19.7555 41.2351 19.7632 41.479 19.6186 41.6336C19.5424 41.7151 19.4394 41.7567 19.337 41.7567Z" fill="#472B29"/>
<path d="M36.8379 44.4375C36.6948 44.4375 36.5571 44.3575 36.491 44.2198C36.3987 44.029 36.4787 43.799 36.6702 43.7067C38.3641 42.8898 39.8794 41.7721 41.1748 40.3867C41.6971 39.826 42.1802 39.2244 42.6102 38.5983C42.7302 38.4236 42.971 38.379 43.1448 38.499C43.3202 38.619 43.3648 38.8583 43.2441 39.0336C42.7925 39.6913 42.2856 40.3236 41.7371 40.9106C40.3764 42.3675 38.7848 43.5413 37.0048 44.399C36.951 44.4252 36.8941 44.4375 36.8379 44.4375Z" fill="#472B29"/>
<path d="M27.2756 48.0771V35.0002H22.644V30.4018H27.2756V25.6202C27.1702 21.3302 30.4748 17.1571 38.1248 19.471L38.1087 23.5256L35.4102 23.5087C33.334 23.5087 32.6194 24.1725 32.6194 25.6202V30.4018H38.1248L37.1571 35.0002H32.6194V48.0771" fill="white"/>
<path d="M33.0039 48.0771H32.2347V34.6156H36.8447L37.6508 30.7863H32.2347V25.6202C32.2347 23.894 33.2139 23.124 35.41 23.124L37.7254 23.1386L37.7393 19.7586C34.4516 18.8202 31.7554 19.0563 29.9285 20.4479C28.4347 21.5856 27.607 23.4679 27.66 25.6109V30.7871H23.0285V34.6156H27.66V48.0771H26.8908V35.3848H22.2593V30.0171H26.8908V25.6202C26.8324 23.2363 27.7693 21.124 29.4624 19.8348C30.9147 18.7286 33.6147 17.7056 38.2362 19.1025L38.5108 19.1848L38.4924 23.9117L35.4085 23.8932C33.3977 23.8932 33.0047 24.5263 33.0047 25.6202V30.0171H38.5993L37.4693 35.3848H33.0039V48.0771Z" fill="#472B29"/>
<path d="M29.9999 49.096C19.4176 49.096 10.8076 40.4868 10.8076 29.9037C10.8076 19.3207 19.4176 10.7114 29.9999 10.7114C40.5822 10.7114 49.1922 19.3207 49.1922 29.9037C49.1922 40.4868 40.5822 49.096 29.9999 49.096ZM29.9999 11.7884C20.0115 11.7884 11.8845 19.9145 11.8845 29.9037C11.8845 39.893 20.0115 48.0191 29.9999 48.0191C39.9884 48.0191 48.1153 39.893 48.1153 29.9037C48.1153 19.9145 39.9884 11.7884 29.9999 11.7884Z" fill="#472B29"/>
</svg>
