<svg width="60" height="60" viewBox="0 0 60 60" fill="none" xmlns="http://www.w3.org/2000/svg">
<path d="M50.769 0.769043C50.3444 0.769043 49.9998 1.11366 49.9998 1.53827C49.9998 1.96289 50.3444 2.3075 50.769 2.3075C51.1936 2.3075 51.5382 1.96289 51.5382 1.53827C51.5382 1.11366 51.1936 0.769043 50.769 0.769043Z" fill="#F1BC19"/>
<path d="M30.0001 1.53857C14.2809 1.53857 1.53857 14.2809 1.53857 30.0001C1.53857 45.7193 14.2809 58.4617 30.0001 58.4617C45.7193 58.4617 58.4617 45.7193 58.4617 30.0001C58.4617 14.2809 45.7193 1.53857 30.0001 1.53857Z" fill="#F3DEA3"/>
<path d="M55.3848 0C53.6856 0 52.3079 1.37769 52.3079 3.07692C52.3079 4.77615 53.6856 6.15385 55.3848 6.15385C57.084 6.15385 58.4617 4.77615 58.4617 3.07692C58.4617 1.37769 57.084 0 55.3848 0Z" fill="#F1BC19"/>
<path d="M58.4618 8.46191C57.6118 8.46191 56.9233 9.15038 56.9233 10.0004C56.9233 10.8504 57.6118 11.5388 58.4618 11.5388C59.3118 11.5388 60.0003 10.8504 60.0003 10.0004C60.0003 9.15038 59.3118 8.46191 58.4618 8.46191Z" fill="#CD4054"/>
<path d="M53.8462 48.4618C52.9962 48.4618 52.3077 49.1503 52.3077 50.0003C52.3077 50.8503 52.9962 51.5387 53.8462 51.5387C54.6962 51.5387 55.3846 50.8503 55.3846 50.0003C55.3846 49.1503 54.6962 48.4618 53.8462 48.4618ZM3.07692 36.9233C1.37769 36.9233 0 38.301 0 40.0003C0 41.6995 1.37769 43.0772 3.07692 43.0772C4.77615 43.0772 6.15385 41.6995 6.15385 40.0003C6.15385 38.301 4.77615 36.9233 3.07692 36.9233Z" fill="#FBCD59"/>
<path d="M10.7694 56.9233C9.91942 56.9233 9.23096 57.6118 9.23096 58.4618C9.23096 59.3118 9.91942 60.0003 10.7694 60.0003C11.6194 60.0003 12.3079 59.3118 12.3079 58.4618C12.3079 57.6118 11.6194 56.9233 10.7694 56.9233Z" fill="#CD4054"/>
<path d="M5.76927 29.2307C4.70696 29.2307 3.84619 30.0915 3.84619 31.1538C3.84619 32.2161 4.70696 33.0769 5.76927 33.0769C6.83158 33.0769 7.69235 32.2161 7.69235 31.1538C7.69235 30.0915 6.83158 29.2307 5.76927 29.2307ZM52.6923 16.1538C52.0554 16.1538 51.5385 16.6707 51.5385 17.3077C51.5385 17.9446 52.0554 18.4615 52.6923 18.4615C53.3293 18.4615 53.8462 17.9446 53.8462 17.3077C53.8462 16.6707 53.3293 16.1538 52.6923 16.1538Z" fill="white"/>
<path d="M19.4029 28.6499V44.5214H13.1237C11.8206 44.5214 10.769 43.6107 10.769 42.3076V21.8999L19.4029 28.6499Z" fill="#78A0CF"/>
<path d="M19.4029 17.6921V28.6498L10.769 21.8998V19.796C10.769 18.7914 11.1144 17.8652 11.6875 17.1352C13.109 15.2883 15.9006 14.9175 17.7475 16.3975L19.4029 17.6921Z" fill="#C4211F"/>
<path d="M40.5964 17.6924V28.6424L30.0002 36.9232L19.4033 28.6501V17.6924L30.0002 25.9655L40.5964 17.6924Z" fill="#EB4235"/>
<path d="M49.2305 19.7964V21.9002L40.5967 28.6425V17.6925L42.2528 16.3972C43.0459 15.7772 43.9798 15.4787 44.9136 15.4787C47.2367 15.4572 49.2574 17.4302 49.2305 19.7964Z" fill="#F1BC19"/>
<path d="M49.2305 21.8999V42.1668C49.2305 43.4699 48.179 44.5214 46.8759 44.5214H40.5967V28.6422L49.2305 21.8999Z" fill="#9CA74C"/>
<path d="M13.1238 40.5972V42.1664" stroke="#472B29" stroke-width="0.6875" stroke-miterlimit="10" stroke-linecap="round" stroke-linejoin="round"/>
<path d="M13.1238 35.8872V38.2418" stroke="#472B29" stroke-width="0.6875" stroke-miterlimit="10" stroke-linecap="round" stroke-linejoin="round"/>
<path d="M13.1238 28.0376V33.4876" stroke="#472B29" stroke-width="0.6875" stroke-miterlimit="10" stroke-linecap="round" stroke-linejoin="round"/>
<path d="M19.4029 17.8741V44.521H13.1237C11.8229 44.521 10.769 43.4664 10.769 42.1664V19.7964C10.769 17.4118 12.7021 15.4795 15.086 15.4795" stroke="#472B29" stroke-width="1.28333" stroke-miterlimit="10" stroke-linejoin="round"/>
<path d="M48.3156 17.1384C46.8479 15.2599 44.1348 14.9261 42.2556 16.3945L30.0002 25.9691L17.7441 16.3938C15.8656 14.9261 13.1525 15.2591 11.6841 17.1376" stroke="#472B29" stroke-width="1.28333" stroke-miterlimit="10" stroke-linejoin="round"/>
<path d="M31.0864 33.0787L34.6557 30.2549" stroke="#472B29" stroke-width="0.6875" stroke-miterlimit="10" stroke-linecap="round" stroke-linejoin="round"/>
<path d="M26.6526 31.2891L29.431 33.4875" stroke="#472B29" stroke-width="0.6875" stroke-miterlimit="10" stroke-linecap="round" stroke-linejoin="round"/>
<path d="M23.5776 28.856L25.4207 30.3144" stroke="#472B29" stroke-width="0.6875" stroke-miterlimit="10" stroke-linecap="round" stroke-linejoin="round"/>
<path d="M21.5513 27.2529L22.3459 27.8822" stroke="#472B29" stroke-width="0.6875" stroke-miterlimit="10" stroke-linecap="round" stroke-linejoin="round"/>
<path d="M10.895 21.9995L30.0004 36.9257L49.0919 22.0103" stroke="#472B29" stroke-width="1.28333" stroke-miterlimit="10" stroke-linejoin="round"/>
<path d="M44.9131 15.4795C47.2977 15.4795 49.23 17.4126 49.23 19.7964V42.1664C49.23 43.4672 48.1754 44.521 46.8754 44.521H40.5962V17.821" stroke="#472B29" stroke-width="1.28333" stroke-miterlimit="10" stroke-linejoin="round"/>
</svg>
