<svg width="60" height="60" viewBox="0 0 60 60" fill="none" xmlns="http://www.w3.org/2000/svg">
<path d="M1.53846 15.3845C2.38813 15.3845 3.07692 14.6957 3.07692 13.8461C3.07692 12.9964 2.38813 12.3076 1.53846 12.3076C0.688793 12.3076 0 12.9964 0 13.8461C0 14.6957 0.688793 15.3845 1.53846 15.3845Z" fill="#EE3E54"/>
<path d="M50.7692 2.3075C51.1941 2.3075 51.5385 1.96311 51.5385 1.53827C51.5385 1.11344 51.1941 0.769043 50.7692 0.769043C50.3444 0.769043 50 1.11344 50 1.53827C50 1.96311 50.3444 2.3075 50.7692 2.3075Z" fill="#F1BC19"/>
<path d="M29.9999 58.4617C45.7187 58.4617 58.4614 45.719 58.4614 30.0001C58.4614 14.2812 45.7187 1.53857 29.9999 1.53857C14.281 1.53857 1.53833 14.2812 1.53833 30.0001C1.53833 45.719 14.281 58.4617 29.9999 58.4617Z" fill="#F3DEA3"/>
<path d="M55.3845 6.15385C57.0839 6.15385 58.4615 4.77626 58.4615 3.07692C58.4615 1.37759 57.0839 0 55.3845 0C53.6852 0 52.3076 1.37759 52.3076 3.07692C52.3076 4.77626 53.6852 6.15385 55.3845 6.15385Z" fill="#F1BC19"/>
<path d="M58.4616 11.5388C59.3112 11.5388 60 10.85 60 10.0004C60 9.15071 59.3112 8.46191 58.4616 8.46191C57.6119 8.46191 56.9231 9.15071 56.9231 10.0004C56.9231 10.85 57.6119 11.5388 58.4616 11.5388Z" fill="#EE3E54"/>
<path d="M53.8461 51.5383C54.6957 51.5383 55.3845 50.8496 55.3845 49.9999C55.3845 49.1502 54.6957 48.4614 53.8461 48.4614C52.9964 48.4614 52.3076 49.1502 52.3076 49.9999C52.3076 50.8496 52.9964 51.5383 53.8461 51.5383Z" fill="#FBCD59"/>
<path d="M3.07692 43.0767C4.77626 43.0767 6.15385 41.6991 6.15385 39.9998C6.15385 38.3004 4.77626 36.9229 3.07692 36.9229C1.37759 36.9229 0 38.3004 0 39.9998C0 41.6991 1.37759 43.0767 3.07692 43.0767Z" fill="#FBCD59"/>
<path d="M10.7692 60.0003C11.6188 60.0003 12.3076 59.3115 12.3076 58.4618C12.3076 57.6121 11.6188 56.9233 10.7692 56.9233C9.91951 56.9233 9.23071 57.6121 9.23071 58.4618C9.23071 59.3115 9.91951 60.0003 10.7692 60.0003Z" fill="#EE3E54"/>
<path d="M5.76927 34.6152C6.83135 34.6152 7.69235 33.7542 7.69235 32.6921C7.69235 31.63 6.83135 30.769 5.76927 30.769C4.70718 30.769 3.84619 31.63 3.84619 32.6921C3.84619 33.7542 4.70718 34.6152 5.76927 34.6152Z" fill="white"/>
<path d="M7.69233 43.8461C8.11716 43.8461 8.46156 43.5017 8.46156 43.0768C8.46156 42.652 8.11716 42.3076 7.69233 42.3076C7.26749 42.3076 6.9231 42.652 6.9231 43.0768C6.9231 43.5017 7.26749 43.8461 7.69233 43.8461Z" fill="#F1BC19"/>
<path d="M53.0768 18.4613C53.5017 18.4613 53.8461 18.1169 53.8461 17.6921C53.8461 17.2672 53.5017 16.9229 53.0768 16.9229C52.652 16.9229 52.3076 17.2672 52.3076 17.6921C52.3076 18.1169 52.652 18.4613 53.0768 18.4613Z" fill="white"/>
<path d="M47.1539 17.4616V42.5385C47.1539 45.0847 45.0847 47.1539 42.5385 47.1539H17.4616C14.9154 47.1539 12.8462 45.0847 12.8462 42.5385V17.4616C12.8462 14.9154 14.9154 12.8462 17.4616 12.8462H42.5385C45.0847 12.8462 47.1539 14.9154 47.1539 17.4616Z" fill="#3231C7"/>
<path d="M47.1539 28.4923V42.5385C47.1539 45.0847 45.0847 47.1539 42.5385 47.1539H17.4616C14.9154 47.1539 12.8462 45.0847 12.8462 42.5385V17.4616C12.8462 14.9154 14.9154 12.8462 17.4616 12.8462H31.5077C38.1539 16.377 43.6231 21.8462 47.1539 28.4923Z" fill="#7228AD"/>
<path d="M45.3847 46.1537C45.3847 46.1614 45.3847 46.1614 45.3847 46.1691C44.6 46.7845 43.6154 47.1537 42.5385 47.1537H17.4616C14.9154 47.1537 12.8462 45.0845 12.8462 42.5383V17.4614C12.8462 16.3845 13.2154 15.3998 13.8308 14.6152C13.8385 14.6152 13.8385 14.6152 13.8462 14.6152C31.2616 14.6152 45.3847 28.7383 45.3847 46.1537Z" fill="#B11E93"/>
<path d="M39.2308 46.1537C39.2308 46.4921 39.2231 46.8229 39.2077 47.1537H17.4616C14.9154 47.1537 12.8462 45.0844 12.8462 42.5383V20.7921C13.177 20.7767 13.5077 20.769 13.8462 20.769C27.8693 20.769 39.2308 32.1306 39.2308 46.1537Z" fill="#DB1A58"/>
<path d="M33.077 46.1541C33.077 46.4849 33.0693 46.8233 33.0539 47.1541H17.4616C14.9154 47.1541 12.8462 45.0849 12.8462 42.5387V26.9464C13.177 26.931 13.5154 26.9233 13.8462 26.9233C24.4693 26.9233 33.077 35.531 33.077 46.1541Z" fill="#E4273E"/>
<path d="M27.6923 46.1538C27.6923 46.4922 27.677 46.823 27.6539 47.1538H17.4616C14.9154 47.1538 12.8462 45.0845 12.8462 42.5384V32.3461C13.177 32.323 13.5077 32.3076 13.8462 32.3076C21.4923 32.3076 27.6923 38.5076 27.6923 46.1538Z" fill="#F47C22"/>
<path d="M23.077 46.1536C23.077 46.4921 23.0616 46.8229 23.0231 47.1536H17.4616C14.9154 47.1536 12.8462 45.0844 12.8462 42.5382V36.9767C13.177 36.9382 13.5077 36.9229 13.8462 36.9229C18.9462 36.9229 23.077 41.0536 23.077 46.1536Z" fill="#EF9922"/>
<path d="M42.5384 47.6922H17.4615C14.6199 47.6922 12.3076 45.3799 12.3076 42.5384V17.4615C12.3076 14.6199 14.6199 12.3076 17.4615 12.3076H42.5384C45.3799 12.3076 47.6922 14.6199 47.6922 17.4615V42.5384C47.6922 45.3799 45.3799 47.6922 42.5384 47.6922ZM17.4615 13.3845C15.213 13.3845 13.3845 15.213 13.3845 17.4615V42.5384C13.3845 44.7861 15.213 46.6153 17.4615 46.6153H42.5384C44.7869 46.6153 46.6153 44.7869 46.6153 42.5384V17.4615C46.6153 15.2138 44.7869 13.3845 42.5384 13.3845H17.4615Z" fill="#472B29"/>
<path d="M29.9923 41.8845C26.9292 41.8845 25.7892 41.8761 24.6246 41.823C23.5569 41.7753 22.7254 41.6145 21.9285 41.3022C21.1546 41.0038 20.5492 40.6107 19.9646 40.0261C19.3854 39.4461 18.9915 38.8399 18.6892 38.0622C18.3854 37.2876 18.2246 36.4561 18.1685 35.3661C18.1154 34.193 18.1069 33.0538 18.1069 29.9992C18.1069 26.9499 18.1154 25.813 18.1685 24.6392C18.2162 23.5715 18.3769 22.7407 18.6885 21.9438C18.9915 21.1584 19.3846 20.553 19.9646 19.9799C20.5446 19.4007 21.15 19.0068 21.9292 18.7038C22.7254 18.3922 23.5569 18.2322 24.6246 18.183C25.8285 18.1292 26.9823 18.1138 29.9923 18.1138C33.0031 18.1138 34.1546 18.1292 35.3515 18.183C36.4192 18.2315 37.2508 18.3915 38.0485 18.7038C38.8339 19.0068 39.4385 19.3999 40.0115 19.9799C40.5862 20.5476 40.9823 21.1522 41.2954 21.9438C41.6008 22.7484 41.76 23.5807 41.8085 24.6392C41.8623 25.8545 41.8777 27.0068 41.8777 29.9984C41.8777 32.9961 41.8623 34.1499 41.8085 35.3661C41.76 36.4253 41.6015 37.2568 41.2954 38.0622C40.9823 38.8453 40.5854 39.4515 40.0115 40.0253C39.44 40.6038 38.8369 40.9976 38.0554 41.3015C37.2485 41.613 36.4146 41.7738 35.3515 41.8215C34.1869 41.8761 33.0492 41.8845 29.9923 41.8845ZM28.9846 20.3461C26.8677 20.3461 25.7054 20.3622 24.6962 20.4068C23.6639 20.4545 23.0946 20.6276 22.7139 20.773C22.2392 20.9592 21.8992 21.1807 21.5408 21.5407C21.1815 21.8992 20.96 22.2368 20.7769 22.7068C20.63 23.0899 20.4562 23.6607 20.4085 24.6953C20.3562 25.8538 20.3477 26.9222 20.3477 29.993C20.3477 33.0699 20.3562 34.1392 20.4085 35.2968C20.4562 36.3245 20.6292 36.8938 20.7754 37.2753C20.9592 37.7515 21.18 38.0915 21.5369 38.4484C21.9008 38.8061 22.2415 39.0268 22.7139 39.213C23.0823 39.3576 23.64 39.5292 24.6954 39.5784C25.8954 39.6322 27.0339 39.6468 29.9939 39.6468C32.96 39.6468 34.1 39.6322 35.2977 39.5784C36.3785 39.5284 36.9492 39.3453 37.2846 39.2115C37.7492 39.0315 38.0877 38.813 38.4492 38.4592C38.8077 38.093 39.03 37.7522 39.2192 37.2792C39.3623 36.9045 39.5308 36.343 39.58 35.2984C39.6331 34.0884 39.6485 32.9484 39.6485 29.993C39.6485 27.043 39.6331 25.9045 39.58 24.6961C39.5315 23.653 39.3631 23.0915 39.2208 22.7192C39.0369 22.2422 38.8169 21.903 38.4592 21.5461C38.0762 21.1692 37.7646 20.9692 37.2685 20.7792C36.9115 20.6368 36.3623 20.4653 35.2992 20.4153C34.1185 20.3615 32.9777 20.3468 29.9946 20.3468L28.9846 20.3461Z" fill="white"/>
<path d="M29.9922 18.3075C32.9991 18.3075 34.1499 18.3221 35.343 18.3767C36.3884 18.4236 37.2007 18.5805 37.9799 18.8844C38.7376 19.1767 39.3214 19.5559 39.8776 20.119C40.4307 20.6652 40.813 21.2498 41.1145 22.0105C41.4137 22.7982 41.5684 23.6113 41.6161 24.6482C41.6699 25.8605 41.6845 27.0113 41.6845 29.9998C41.6845 32.9944 41.6699 34.1459 41.6161 35.3582C41.5684 36.3967 41.4137 37.2098 41.1176 37.989C40.813 38.7498 40.4299 39.3359 39.8737 39.8921C39.323 40.4498 38.7407 40.8298 37.9868 41.1229C37.1999 41.4267 36.3845 41.5836 35.3437 41.6305C34.183 41.6836 33.0468 41.6921 29.993 41.6921C26.933 41.6921 25.7945 41.6836 24.6337 41.6305C23.5884 41.5836 22.7761 41.4275 21.9984 41.1229C21.2514 40.8344 20.6668 40.4544 20.1022 39.8905C19.5422 39.3298 19.1622 38.7452 18.8691 37.9921C18.5737 37.2375 18.4176 36.4244 18.3622 35.359C18.3091 34.1882 18.3007 33.0505 18.3007 29.999C18.3007 26.9536 18.3091 25.8175 18.3622 24.6475C18.4091 23.6021 18.5653 22.7898 18.8699 22.0113C19.1622 21.2536 19.5414 20.669 20.103 20.1152C20.6622 19.5559 21.2476 19.1759 22.0007 18.8829C22.7768 18.5798 23.5891 18.4229 24.6345 18.3752C25.8345 18.3221 26.9861 18.3075 29.9922 18.3075ZM29.9922 39.8382C32.9622 39.8382 34.1037 39.8236 35.3053 39.7698C36.4153 39.7182 37.0061 39.5282 37.3499 39.3905C37.843 39.1998 38.1999 38.9698 38.5876 38.5898C38.9622 38.2075 39.1961 37.8482 39.3976 37.3436C39.5445 36.9582 39.7199 36.3782 39.7691 35.3059C39.823 34.0936 39.8376 32.9513 39.8376 29.9921C39.8376 27.039 39.823 25.8982 39.7691 24.6859C39.7191 23.6159 39.5445 23.0359 39.3976 22.6475C39.2061 22.1513 38.9653 21.7813 38.5907 21.4059C38.1922 21.0144 37.8522 20.7952 37.3407 20.5998C36.9668 20.4505 36.3984 20.2729 35.3061 20.2213C34.1222 20.1675 32.9799 20.1529 29.993 20.1529H28.9845C26.8645 20.1529 25.6999 20.169 24.6861 20.2136C23.6276 20.2629 23.0391 20.4413 22.6414 20.5929C22.1484 20.7859 21.7784 21.0282 21.4037 21.4029C21.0291 21.7767 20.7876 22.1452 20.5953 22.6375C20.4437 23.0321 20.2637 23.6221 20.2145 24.6852C20.1614 25.8475 20.153 26.9167 20.153 29.9913C20.153 33.0713 20.1607 34.1429 20.2145 35.3044C20.2637 36.3598 20.443 36.9475 20.5937 37.3429C20.7876 37.8459 21.0214 38.2052 21.4014 38.5852C21.7791 38.9559 22.1499 39.1967 22.6422 39.3898C23.0237 39.539 23.6014 39.7175 24.6853 39.7682C25.8884 39.8236 27.0291 39.8382 29.9922 39.8382ZM29.9922 17.9229C26.9222 17.9229 25.7968 17.939 24.6161 17.9921C23.5261 18.0413 22.6761 18.2067 21.8599 18.5252C21.0545 18.839 20.4291 19.2459 19.8299 19.8436C19.2299 20.4367 18.8222 21.0629 18.5099 21.8736C18.1899 22.6905 18.0253 23.5413 17.9768 24.6305C17.9237 25.8129 17.9153 26.9529 17.9153 29.999C17.9153 33.0521 17.9237 34.1929 17.9768 35.3759C18.0345 36.4867 18.1991 37.3367 18.5099 38.1321C18.823 38.9359 19.2307 39.5621 19.8291 40.1621C20.4337 40.7667 21.0607 41.1729 21.8591 41.4813C22.6761 41.8013 23.5268 41.9659 24.6161 42.0144C25.7984 42.0682 26.9391 42.0767 29.9922 42.0767C33.0384 42.0767 34.1776 42.069 35.3607 42.0144C36.4453 41.9659 37.2984 41.8013 38.1253 41.4813C38.9337 41.1667 39.5568 40.7598 40.1476 40.1621C40.7407 39.569 41.1499 38.9444 41.4753 38.1313C41.7899 37.3044 41.9514 36.4544 42.0014 35.3752C42.0537 34.1936 42.0707 33.0675 42.0707 29.999C42.0707 26.9382 42.0545 25.8121 42.0014 24.6305C41.9522 23.5521 41.7907 22.7029 41.4745 21.8729C41.1507 21.0559 40.7414 20.4298 40.1484 19.8444C39.5553 19.2444 38.9299 18.8375 38.1184 18.5244C37.3007 18.2044 36.4499 18.0405 35.3607 17.9913C34.1868 17.939 33.063 17.9229 29.9922 17.9229ZM29.9922 39.4536C27.0368 39.4536 25.8999 39.439 24.703 39.3852C23.6753 39.3375 23.1368 39.1713 22.783 39.0329C22.3353 38.8567 22.0137 38.6482 21.6714 38.3113C21.3322 37.9721 21.1291 37.6605 20.953 37.2052C20.813 36.839 20.6461 36.2859 20.5991 35.2867C20.5468 34.139 20.5384 33.0705 20.5384 29.9913C20.5384 26.9182 20.5468 25.8513 20.5991 24.7029C20.6461 23.6967 20.813 23.1444 20.9545 22.7752C21.1276 22.3336 21.3368 22.0136 21.6761 21.6752C22.0145 21.3359 22.3345 21.1267 22.7822 20.9513C23.1461 20.8129 23.6991 20.6444 24.7045 20.5982C25.7076 20.5552 26.8691 20.5382 28.9845 20.5382H29.993C32.9745 20.5382 34.1122 20.5529 35.2891 20.6059C36.3245 20.6544 36.853 20.819 37.1984 20.9575C37.6691 21.1375 37.9599 21.3252 38.3214 21.6805C38.6568 22.0159 38.8661 22.3375 39.0399 22.7867C39.1753 23.1429 39.3391 23.6867 39.3861 24.7044C39.4391 25.9021 39.4545 27.0398 39.4545 29.9929C39.4545 32.9521 39.4391 34.0913 39.3861 35.2898C39.3384 36.3067 39.1761 36.849 39.0391 37.2082C38.8591 37.659 38.6537 37.9744 38.3137 38.3221C37.9714 38.6582 37.6591 38.8605 37.2122 39.0329C36.8861 39.1629 36.343 39.3375 35.2884 39.3859C34.0922 39.439 32.9537 39.4536 29.9922 39.4536Z" fill="#472B29"/>
<path d="M36.5385 24.8075C35.7962 24.8075 35.1924 24.2037 35.1924 23.4614C35.1924 22.7191 35.7962 22.1152 36.5385 22.1152C36.8978 22.1152 37.2362 22.2552 37.4901 22.5091C37.7447 22.7637 37.8847 23.1014 37.8847 23.4606C37.8847 24.2037 37.2808 24.8075 36.5385 24.8075Z" fill="white"/>
<path d="M36.5385 22.3075C37.1754 22.3075 37.6923 22.8244 37.6923 23.4613C37.6923 24.0982 37.1754 24.6152 36.5385 24.6152C35.9015 24.6152 35.3846 24.0982 35.3846 23.4613C35.3846 22.8244 35.9015 22.3082 36.5385 22.3075ZM36.5385 21.9229C35.69 21.9236 35 22.6136 35 23.4613C35 24.3098 35.69 24.9998 36.5385 24.9998C37.3869 24.9998 38.0769 24.3098 38.0769 23.4613C38.0769 22.6129 37.3869 21.9229 36.5385 21.9229Z" fill="#472B29"/>
<path d="M29.9906 23.4644C26.3791 23.4644 23.4514 26.392 23.4514 30.0036C23.4514 33.6151 26.3791 36.5413 29.9906 36.5413C33.6022 36.5413 36.5283 33.6144 36.5283 30.0036C36.5283 26.3928 33.6014 23.4644 29.9906 23.4644ZM29.9906 25.7728C32.3268 25.7728 34.2214 27.6667 34.2214 30.0036C34.2214 32.3397 32.3268 34.2344 29.9906 34.2344C27.6537 34.2344 25.7599 32.3397 25.7599 30.0036C25.7599 27.6667 27.6537 25.7728 29.9906 25.7728Z" fill="white"/>
<path d="M29.9906 36.734C26.279 36.734 23.259 33.7148 23.259 30.0032C23.259 26.2917 26.279 23.2725 29.9906 23.2725C33.7013 23.2725 36.7206 26.2917 36.7206 30.0032C36.7206 33.7148 33.7013 36.734 29.9906 36.734ZM29.9906 23.6571C26.4906 23.6571 23.6436 26.504 23.6436 30.0032C23.6436 33.5025 26.4906 36.3494 29.9906 36.3494C33.4898 36.3494 36.336 33.5025 36.336 30.0032C36.336 26.504 33.4898 23.6571 29.9906 23.6571ZM29.9906 34.4263C27.5513 34.4263 25.5675 32.4417 25.5675 30.0032C25.5675 27.5648 27.5513 25.5802 29.9906 25.5802C32.4298 25.5802 34.4136 27.5648 34.4136 30.0032C34.4136 32.4417 32.4298 34.4263 29.9906 34.4263ZM29.9906 25.9648C27.7636 25.9648 25.9521 27.7763 25.9521 30.0032C25.9521 32.2302 27.7636 34.0417 29.9906 34.0417C32.2175 34.0417 34.029 32.2302 34.029 30.0032C34.029 27.7763 32.2175 25.9648 29.9906 25.9648Z" fill="#472B29"/>
</svg>
