<svg width="24" height="20" viewBox="0 0 24 20" fill="none" xmlns="http://www.w3.org/2000/svg">
<path d="M22.7143 17.3913H1.28571C0.578571 17.3913 0 17.9783 0 18.6957C0 19.413 0.578571 20 1.28571 20H22.7143C23.4214 20 24 19.413 24 18.6957C24 17.9783 23.4214 17.3913 22.7143 17.3913ZM22.7143 0H1.28571C0.578571 0 0 0.586957 0 1.30435C0 2.02174 0.578571 2.6087 1.28571 2.6087H22.7143C23.4214 2.6087 24 2.02174 24 1.30435C24 0.586957 23.4214 0 22.7143 0ZM22.7143 8.69565H1.28571C0.578571 8.69565 0 9.28261 0 10C0 10.7174 0.578571 11.3043 1.28571 11.3043H22.7143C23.4214 11.3043 24 10.7174 24 10C24 9.28261 23.4214 8.69565 22.7143 8.69565Z" fill="white"/>
</svg>
