<svg width="60" height="60" viewBox="0 0 60 60" fill="none" xmlns="http://www.w3.org/2000/svg">
<path d="M52.1049 2.3685C52.5409 2.3685 52.8944 2.01504 52.8944 1.57902C52.8944 1.14301 52.5409 0.789551 52.1049 0.789551C51.6689 0.789551 51.3154 1.14301 51.3154 1.57902C51.3154 2.01504 51.6689 2.3685 52.1049 2.3685Z" fill="#F1BC19"/>
<path d="M30 60C46.5685 60 60 46.5685 60 30C60 13.4315 46.5685 0 30 0C13.4315 0 0 13.4315 0 30C0 46.5685 13.4315 60 30 60Z" fill="#F9DBD2"/>
<path d="M56.842 6.31579C58.586 6.31579 59.9999 4.90195 59.9999 3.15789C59.9999 1.41384 58.586 0 56.842 0C55.0979 0 53.6841 1.41384 53.6841 3.15789C53.6841 4.90195 55.0979 6.31579 56.842 6.31579Z" fill="#F1BC19"/>
<path d="M1.57895 12.632C2.45098 12.632 3.15789 11.9251 3.15789 11.0531C3.15789 10.181 2.45098 9.47412 1.57895 9.47412C0.706919 9.47412 0 10.181 0 11.0531C0 11.9251 0.706919 12.632 1.57895 12.632Z" fill="#EE3E54"/>
<path d="M52.1053 52.8947C52.9773 52.8947 53.6843 52.1878 53.6843 51.3158C53.6843 50.4437 52.9773 49.7368 52.1053 49.7368C51.2333 49.7368 50.5264 50.4437 50.5264 51.3158C50.5264 52.1878 51.2333 52.8947 52.1053 52.8947Z" fill="#FBCD59"/>
<path d="M3.94745 55.2631C5.6915 55.2631 7.10534 53.8492 7.10534 52.1052C7.10534 50.3611 5.6915 48.9473 3.94745 48.9473C2.20339 48.9473 0.789551 50.3611 0.789551 52.1052C0.789551 53.8492 2.20339 55.2631 3.94745 55.2631Z" fill="#FBCD59"/>
<path d="M9.47348 57.632C10.3455 57.632 11.0524 56.9251 11.0524 56.0531C11.0524 55.181 10.3455 54.4741 9.47348 54.4741C8.60145 54.4741 7.89453 55.181 7.89453 56.0531C7.89453 56.9251 8.60145 57.632 9.47348 57.632Z" fill="#EE3E54"/>
<path d="M43.013 54.4742C44.0956 54.4742 44.9733 53.5966 44.9733 52.514C44.9733 51.4314 44.0956 50.5537 43.013 50.5537C41.9304 50.5537 41.0527 51.4314 41.0527 52.514C41.0527 53.5966 41.9304 54.4742 43.013 54.4742Z" fill="white"/>
<path d="M3.15813 29.2108C3.59414 29.2108 3.9476 28.8573 3.9476 28.4213C3.9476 27.9853 3.59414 27.6318 3.15813 27.6318C2.72211 27.6318 2.36865 27.9853 2.36865 28.4213C2.36865 28.8573 2.72211 29.2108 3.15813 29.2108Z" fill="white"/>
<path d="M58.4208 15.7899C58.8568 15.7899 59.2103 15.4364 59.2103 15.0004C59.2103 14.5644 58.8568 14.2109 58.4208 14.2109C57.9848 14.2109 57.6313 14.5644 57.6313 15.0004C57.6313 15.4364 57.9848 15.7899 58.4208 15.7899Z" fill="#F1BC19"/>
<path d="M53.6844 44.2106C54.5564 44.2106 55.2634 43.5037 55.2634 42.6317C55.2634 41.7597 54.5564 41.0527 53.6844 41.0527C52.8124 41.0527 52.1055 41.7597 52.1055 42.6317C52.1055 43.5037 52.8124 44.2106 53.6844 44.2106Z" fill="white"/>
<path d="M30.0002 49.1449C40.5736 49.1449 49.1449 40.5736 49.1449 30.0002C49.1449 19.4269 40.5736 10.8555 30.0002 10.8555C19.4269 10.8555 10.8555 19.4269 10.8555 30.0002C10.8555 40.5736 19.4269 49.1449 30.0002 49.1449Z" fill="#78A0CF"/>
<path d="M30.0001 49.6975C19.1393 49.6975 10.3027 40.8617 10.3027 30.0001C10.3027 19.1385 19.1393 10.3027 30.0001 10.3027C40.8609 10.3027 49.6975 19.1385 49.6975 30.0001C49.6975 40.8617 40.8609 49.6975 30.0001 49.6975ZM30.0001 11.408C19.7488 11.408 11.408 19.748 11.408 30.0001C11.408 40.2522 19.7488 48.5922 30.0001 48.5922C40.2514 48.5922 48.5922 40.2514 48.5922 30.0001C48.5922 19.7488 40.2514 11.408 30.0001 11.408Z" fill="#472B29"/>
<path d="M29.9507 46.1842C38.862 46.1842 46.086 38.9825 46.086 30.0987C46.086 21.2149 38.862 14.0132 29.9507 14.0132C21.0394 14.0132 13.8154 21.2149 13.8154 30.0987C13.8154 38.9825 21.0394 46.1842 29.9507 46.1842Z" fill="#78A0CF"/>
<path d="M45.3351 25.8552C45.1661 25.8552 45.0098 25.7455 44.9577 25.5757C44.8882 25.3492 44.8133 25.1249 44.7335 24.9023C44.424 24.0386 44.034 23.1978 43.573 22.4005C43.4632 22.2126 43.528 21.9702 43.7167 21.8613C43.9054 21.7499 44.1469 21.8163 44.2559 22.0057C44.7406 22.8434 45.1511 23.7284 45.4764 24.6355C45.5601 24.8699 45.639 25.1052 45.7117 25.3436C45.7756 25.552 45.6588 25.7731 45.4496 25.837C45.4117 25.8497 45.373 25.8552 45.3351 25.8552Z" fill="#472B29"/>
<path d="M29.9998 46.4805C20.9122 46.4805 13.5195 39.1092 13.5195 30.0492C13.5195 20.9892 20.9122 13.6187 29.9998 13.6187C34.7169 13.6187 39.2161 15.6397 42.344 19.1631C42.5801 19.4292 42.8082 19.7039 43.0269 19.985C43.1603 20.1571 43.1295 20.4042 42.9582 20.5384C42.7861 20.6742 42.5382 20.6418 42.404 20.4689C42.1956 20.2013 41.9777 19.9408 41.7535 19.6873C38.7756 16.3329 34.4911 14.4081 29.9998 14.4081C21.348 14.4081 14.309 21.425 14.309 30.05C14.309 38.675 21.348 45.691 29.9998 45.691C38.6516 45.691 45.6906 38.6742 45.6906 30.0492C45.6906 29.2637 45.6314 28.4734 45.5153 27.7021C45.483 27.4873 45.6314 27.286 45.8469 27.2537C46.0664 27.2213 46.2637 27.3697 46.2961 27.5852C46.4177 28.3944 46.4801 29.2242 46.4801 30.0492C46.4801 39.1092 39.0874 46.4805 29.9998 46.4805Z" fill="#472B29"/>
<path d="M40.2168 24.2937C39.5087 24.6151 38.7484 24.8322 37.9479 24.9285C38.7634 24.4295 39.3895 23.6385 39.6847 22.6966C38.9213 23.1585 38.0758 23.4948 37.1774 23.6756C36.4566 22.8916 35.4303 22.4014 34.2934 22.4014C32.1121 22.4014 30.3453 24.2077 30.3453 26.4364C30.3453 26.7522 30.38 27.0608 30.4463 27.3561C27.1637 27.1879 24.2545 25.5814 22.3068 23.1395C21.9674 23.7356 21.7724 24.4287 21.7724 25.1685C21.7724 26.569 22.4695 27.8037 23.5282 28.5285C22.8816 28.5072 22.2721 28.3264 21.7392 28.024C21.7384 28.0406 21.7384 28.0579 21.7384 28.0745C21.7384 30.0308 23.0995 31.6619 24.9058 32.0322C24.575 32.1237 24.226 32.1735 23.8653 32.1735C23.6103 32.1735 23.3632 32.1482 23.1232 32.1016C23.6253 33.7043 25.0842 34.8711 26.8116 34.9043C25.4608 35.9866 23.7579 36.6324 21.9082 36.6324C21.5892 36.6324 21.2742 36.6127 20.9663 36.5764C22.7134 37.7203 24.7897 38.3882 27.02 38.3882C34.2839 38.3882 38.2566 32.239 38.2566 26.9053C38.2566 26.7308 38.2518 26.5564 38.2447 26.3827C39.0176 25.8135 39.6863 25.1045 40.2168 24.2937Z" fill="white"/>
<path d="M27.0197 38.7829C24.7934 38.7829 22.6255 38.1339 20.7497 36.9063C20.5966 36.806 20.5326 36.6134 20.595 36.4413C20.6573 36.2692 20.8318 36.1594 21.0126 36.1847C22.6784 36.3836 24.3576 36.0197 25.7731 35.1521C24.3608 34.7723 23.2042 33.6821 22.7463 32.2192C22.7044 32.0865 22.736 31.9413 22.8284 31.8379C22.9208 31.7344 23.0621 31.6847 23.1979 31.7147C23.2034 31.7155 23.2081 31.7163 23.2137 31.7171C22.0737 30.9086 21.3434 29.561 21.3434 28.0752C21.3434 27.9347 21.4184 27.7792 21.54 27.7089C21.6608 27.6379 21.8116 27.611 21.9339 27.6813C22.0373 27.7397 22.1447 27.7934 22.2529 27.8407C21.6916 27.0821 21.3766 26.1481 21.3766 25.1692C21.3766 24.3884 21.5794 23.6186 21.9631 22.9452C22.0279 22.8307 22.1447 22.7573 22.2758 22.7471C22.4108 22.7376 22.5339 22.7921 22.6152 22.8947C24.4492 25.1921 27.1097 26.6439 29.9763 26.9257C29.9597 26.7647 29.951 26.6013 29.951 26.4371C29.951 23.9944 31.8987 22.0073 34.2931 22.0073C35.4158 22.0073 36.5013 22.455 37.3073 23.2444C38.0708 23.0676 38.801 22.7707 39.48 22.3602C39.6205 22.275 39.7989 22.286 39.9276 22.3871C40.0571 22.4889 40.11 22.6594 40.0602 22.8157C39.8992 23.3289 39.6481 23.8042 39.3237 24.2194C39.5708 24.1373 39.8139 24.0426 40.0515 23.9352C40.2118 23.8626 40.3997 23.9044 40.5142 24.0379C40.6287 24.1705 40.6413 24.3631 40.545 24.5107C40.0255 25.3065 39.3868 25.9997 38.6455 26.5736C38.6487 26.685 38.6502 26.7947 38.6502 26.906C38.651 32.7442 34.3002 38.7829 27.0197 38.7829ZM22.5442 37.0034C23.9447 37.6539 25.4668 37.9934 27.0197 37.9934C33.8068 37.9934 37.8616 32.3557 37.8616 26.9052C37.8616 26.7355 37.8576 26.5665 37.8505 26.3984C37.845 26.2665 37.905 26.1418 38.0108 26.0636C38.3952 25.781 38.7505 25.4636 39.0742 25.1155C38.7205 25.2079 38.3597 25.2757 37.9942 25.32C37.8134 25.3468 37.635 25.2339 37.5742 25.0579C37.5134 24.8826 37.5829 24.6884 37.7408 24.5913C38.1663 24.3315 38.5294 23.9865 38.8129 23.5831C38.3108 23.7955 37.7897 23.9557 37.2537 24.0623C37.1187 24.0907 36.9797 24.045 36.8858 23.9423C36.2163 23.2136 35.2713 22.796 34.2931 22.796C32.3344 22.796 30.7405 24.4286 30.7405 26.4363C30.7405 26.7205 30.7713 27.0015 30.8321 27.2692C30.8597 27.3892 30.8289 27.5163 30.7492 27.611C30.6694 27.7057 30.5518 27.7602 30.4263 27.7507C27.3544 27.5929 24.4642 26.1868 22.4021 23.8657C22.2473 24.2794 22.1668 24.7223 22.1668 25.1692C22.1668 26.3905 22.7589 27.5242 23.7513 28.2031C23.8966 28.3026 23.9581 28.485 23.9037 28.6515C23.8492 28.8181 23.6866 28.9168 23.5152 28.9239C23.0613 28.9081 22.6105 28.8197 22.1842 28.6634C22.4281 30.1492 23.531 31.3476 24.9852 31.6452C25.1637 31.6823 25.2939 31.8363 25.3002 32.0186C25.3066 32.201 25.1873 32.3644 25.0113 32.4126C24.5968 32.5279 24.1721 32.5807 23.7387 32.5665C24.3339 33.7263 25.5063 34.4842 26.8192 34.5094C26.985 34.5126 27.1318 34.62 27.1847 34.7771C27.2376 34.9342 27.1879 35.1086 27.0576 35.2129C25.7439 36.266 24.1942 36.8786 22.5442 37.0034Z" fill="#472B29"/>
</svg>
